# xmcd
#
# Track frame offsets:
#	150
#	12717
#	29884
#	44352
#	60282
#	72266
#	86811
#	100336
#	117808
#	135976
#	151245
#	166214
#	181026
#	204171
#	222812
#	237005
#	252755
#	267675
#	283683
#	297429
#
# Disc length: 4196 seconds
#
# Revision: 1
# Processed by: cddbd v1.5.2PL0 Copyright (c) Steve Scherf et al.
# Submitted via: EZCDAudioConverter 2.1.5.1
#
DISCID=1f106214
DTITLE=Various Artist -  Intiaanikesä Vol4 cd1
DYEAR=1900
DGENRE=
TTITLE0=Michael Teló - Ai Se Eu Te Pego
TTITLE1=GG Caravan - On Se Hienoo
TTITLE2=Shakira Feat. Dizzee Rascal - Loca
TTITLE3=Sean Paul - Get Busy
TTITLE4=Cube Guys and Luciana - Jump (Radio Edit)
TTITLE5=Alexandra Stan - Mr. Saxobeat
TTITLE6=Katy Perry - I Kissed A Girl
TTITLE7=Cyndi Lauper - Hey Now
TTITLE8=Boney M - Brown Girl In The Ring
TTITLE9=Daze - Superhero
TTITLE10=Pakito - Living On Video
TTITLE11=Alexandra Damiani vs Savage - Don't Cry Tonight
TTITLE12=Europe - Final Countdown
TTITLE13=Attack - Ooa Hela Natten
TTITLE14=Bruno Mars - Lazy Song
TTITLE15=Sunrise Avenue - Hollywood Hills
TTITLE16=ItaloBrothers - Stamp On The Ground
TTITLE17=Scatman John - Scatman (Ski Ba Bop Ba Dop Bop)
TTITLE18=Blue Swede - Hooked On A Feeling
TTITLE19=Ville Valo and Natalia Avelon - Summer Wine
EXTD=
EXTT0=
EXTT1=
EXTT2=
EXTT3=
EXTT4=
EXTT5=
EXTT6=
EXTT7=
EXTT8=
EXTT9=
EXTT10=
EXTT11=
EXTT12=
EXTT13=
EXTT14=
EXTT15=
EXTT16=
EXTT17=
EXTT18=
EXTT19=
PLAYORDER=
